<svg width="24" height="24" viewBox="0 0 24 24" fill="none" xmlns="http://www.w3.org/2000/svg">
<path d="M12.9999 7.066C14.884 7.32142 16.6008 8.28279 17.8031 9.75569C19.0054 11.2286 19.6035 13.1031 19.4765 15.0002C19.3494 16.8972 18.5067 18.6753 17.1188 19.9747C15.7308 21.2742 13.9012 21.998 11.9999 22C10.0963 22.0018 8.26319 21.2797 6.87225 19.9801C5.48131 18.6804 4.63663 16.9005 4.50945 15.0011C4.38226 13.1017 4.98209 11.225 6.18734 9.75154C7.39258 8.27804 9.11304 7.31798 10.9999 7.066V1H12.9999V7.066ZM11.9999 20C13.4586 20 14.8576 19.4205 15.889 18.3891C16.9205 17.3576 17.4999 15.9587 17.4999 14.5C17.4999 13.0413 16.9205 11.6424 15.889 10.6109C14.8576 9.57946 13.4586 9 11.9999 9C10.5412 9 9.14228 9.57946 8.11083 10.6109C7.07938 11.6424 6.49992 13.0413 6.49992 14.5C6.49992 15.9587 7.07938 17.3576 8.11083 18.3891C9.14228 19.4205 10.5412 20 11.9999 20V20Z" fill="#09121F"/>
</svg>
