<svg width="24" height="24" viewBox="0 0 24 24" fill="none" xmlns="http://www.w3.org/2000/svg">
<path d="M3.05496 13H5.06996C5.31225 14.6648 6.14582 16.1867 7.41819 17.2873C8.69055 18.3879 10.3166 18.9936 11.999 18.9936C13.6813 18.9936 15.3074 18.3879 16.5797 17.2873C17.8521 16.1867 18.6857 14.6648 18.928 13H20.944C20.6974 15.1999 19.6489 17.2317 17.9987 18.7073C16.3486 20.1828 14.2126 20.9985 11.999 20.9985C9.78532 20.9985 7.64932 20.1828 5.99918 18.7073C4.34904 17.2317 3.3005 15.1999 3.05396 13H3.05496ZM3.05496 11C3.3015 8.80015 4.35004 6.76829 6.00018 5.29275C7.65032 3.81721 9.78632 3.0015 12 3.0015C14.2136 3.0015 16.3496 3.81721 17.9997 5.29275C19.6499 6.76829 20.6984 8.80015 20.945 11H18.93C18.6877 9.33523 17.8541 7.81333 16.5817 6.71274C15.3094 5.61216 13.6833 5.00646 12.001 5.00646C10.3186 5.00646 8.69255 5.61216 7.42019 6.71274C6.14782 7.81333 5.31425 9.33523 5.07196 11H3.05496Z" fill="#09121F"/>
</svg>
