<svg width="24" height="24" viewBox="0 0 24 24" fill="none" xmlns="http://www.w3.org/2000/svg">
<path d="M7.38999 16.539C6.00145 15.5598 4.96074 14.1639 4.41862 12.5537C3.87651 10.9434 3.86115 9.20234 4.37479 7.58276C4.88842 5.96318 5.90435 4.54919 7.27541 3.54565C8.64646 2.54212 10.3014 2.00116 12.0005 2.00116C13.6996 2.00116 15.3545 2.54212 16.7256 3.54565C18.0966 4.54919 19.1126 5.96318 19.6262 7.58276C20.1398 9.20234 20.1245 10.9434 19.5824 12.5537C19.0402 14.1639 17.9995 15.5598 16.611 16.539L18.694 21.299C18.7274 21.3752 18.7413 21.4585 18.7344 21.5415C18.7275 21.6244 18.7001 21.7043 18.6545 21.7739C18.6089 21.8435 18.5467 21.9007 18.4734 21.9401C18.4001 21.9796 18.3182 22.0002 18.235 22H5.76499C5.6819 22.0001 5.6001 21.9795 5.52697 21.9401C5.45383 21.9007 5.39168 21.8436 5.34612 21.7742C5.30056 21.7047 5.27303 21.6249 5.26603 21.5422C5.25902 21.4594 5.27275 21.3761 5.30599 21.3L7.38899 16.539H7.38999ZM14.125 15.846L15.457 14.905C16.4987 14.1708 17.2796 13.124 17.6865 11.9162C18.0934 10.7085 18.1051 9.40253 17.72 8.18765C17.3349 6.97277 16.573 5.91207 15.5446 5.15927C14.5163 4.40646 13.2749 4.00065 12.0005 4.00065C10.726 4.00065 9.48469 4.40646 8.45634 5.15927C7.42799 5.91207 6.66605 6.97277 6.28096 8.18765C5.89586 9.40253 5.90761 10.7085 6.31449 11.9162C6.72138 13.124 7.50226 14.1708 8.54399 14.905L9.87499 15.846L8.05799 20H15.942L14.125 15.846V15.846ZM8.11899 10.97L10.059 10.485C10.1666 10.9184 10.4162 11.3032 10.768 11.5783C11.1198 11.8534 11.5535 12.0028 12 12.0028C12.4465 12.0028 12.8802 11.8534 13.232 11.5783C13.5837 11.3032 13.8333 10.9184 13.941 10.485L15.881 10.97C15.6634 11.8345 15.1635 12.6016 14.4604 13.1497C13.7574 13.6977 12.8914 13.9953 12 13.9953C11.1085 13.9953 10.2426 13.6977 9.53956 13.1497C8.83649 12.6016 8.33654 11.8345 8.11899 10.97V10.97Z" fill="#09121F"/>
</svg>
