<svg width="673" height="725" viewBox="0 0 673 725" fill="none" xmlns="http://www.w3.org/2000/svg">
<path d="M488.206 84.1454C500.108 65.689 525.981 62.932 541.496 78.4669L592.541 129.578C608.055 145.113 605.302 171.019 586.869 182.936L455.235 268.043C441.602 276.858 423.672 274.948 412.197 263.457L407.789 259.044C396.313 247.553 394.405 229.601 403.209 215.95L488.206 84.1454Z" fill="#1FF4ED"/>
<path d="M134.493 635.9C122.59 654.356 96.7175 657.113 81.2027 641.578L30.1579 590.467C14.643 574.932 17.3965 549.026 35.8291 537.109L167.463 452.001C181.097 443.187 199.026 445.097 210.502 456.588L214.91 461.001C226.385 472.492 228.293 490.444 219.49 504.095L134.493 635.9Z" fill="#FE1955"/>
<path d="M586.869 537.108C605.301 549.025 608.055 574.931 592.54 590.466L541.495 641.577C525.98 657.112 500.107 654.355 488.205 635.899L403.208 504.094C394.405 490.443 396.313 472.491 407.788 461L412.196 456.587C423.672 445.096 441.601 443.186 455.235 452L586.869 537.108Z" fill="black"/>
<path d="M35.8271 182.936C17.3945 171.019 14.641 145.112 30.1559 129.578L81.2006 78.4668C96.7155 62.9319 122.588 65.689 134.49 84.1454L219.488 215.95C228.291 229.601 226.383 247.553 214.908 259.044L210.5 263.457C199.024 274.948 181.095 276.858 167.461 268.043L35.8271 182.936Z" fill="black"/>
<path d="M630.594 292.184C652.044 287.56 672.286 303.929 672.286 325.899L672.286 398.18C672.286 420.15 652.044 436.519 630.594 431.895L477.413 398.875C461.547 395.456 450.219 381.41 450.219 365.161L450.219 358.919C450.219 342.669 461.547 328.624 477.413 325.204L630.594 292.184Z" fill="#FE1955"/>
<path d="M240.948 41.7461C236.331 20.2685 252.678 0.000488281 274.62 0.000488281H346.808C368.749 0.000488281 385.097 20.2685 380.479 41.7461L347.502 195.126C344.087 211.012 330.06 222.355 313.831 222.355H307.597C291.368 222.355 277.341 211.012 273.926 195.126L240.948 41.7461Z" fill="#FE1955"/>
<path d="M380.479 682.332C385.097 703.81 368.749 724.078 346.808 724.078L274.62 724.078C252.678 724.078 236.33 703.81 240.948 682.332L273.925 528.952C277.341 513.067 291.368 501.723 307.597 501.723L313.831 501.723C330.059 501.723 344.086 513.067 347.502 528.952L380.479 682.332Z" fill="#1FF4ED"/>
</svg>
