<svg width="696" height="748" viewBox="0 0 696 748" fill="none" xmlns="http://www.w3.org/2000/svg">
<path d="M505.609 86.901C517.912 67.8471 544.657 65.0008 560.695 81.0386L613.535 133.878C629.573 149.916 626.726 176.661 607.672 188.964L471.474 276.909C457.381 286.009 438.847 284.037 426.985 272.174L422.399 267.589C410.537 255.726 408.564 237.193 417.664 223.1L505.609 86.901Z" fill="#00B37D"/>
<path d="M139.706 656.933C127.403 675.987 100.658 678.833 84.6197 662.795L31.78 609.956C15.7422 593.918 18.5885 567.173 37.6424 554.87L173.841 466.925C187.934 457.825 206.468 459.797 218.33 471.66L222.916 476.245C234.778 488.108 236.75 506.641 227.65 520.734L139.706 656.933Z" fill="#00B37D"/>
<path d="M607.672 554.869C626.726 567.172 629.572 593.917 613.534 609.955L560.694 662.794C544.657 678.832 517.912 675.986 505.608 656.932L417.664 520.733C408.564 506.64 410.536 488.107 422.398 476.244L426.984 471.659C438.846 459.796 457.38 457.824 471.473 466.924L607.672 554.869Z" fill="#00C0FF"/>
<path d="M37.6404 188.964C18.5865 176.661 15.7402 149.916 31.778 133.878L84.6177 81.0387C100.655 65.0009 127.4 67.8472 139.704 86.9011L227.648 223.1C236.748 237.193 234.776 255.726 222.914 267.589L218.328 272.174C206.466 284.037 187.932 286.009 173.839 276.909L37.6404 188.964Z" fill="#00C0FF"/>
<path d="M249.838 43.1341C245.061 20.9444 261.95 0 284.62 0H359.38C382.05 0 398.939 20.9444 394.162 43.1341L360.051 201.581C356.519 217.988 342.031 229.701 325.269 229.701H318.731C301.97 229.701 287.481 217.988 283.949 201.581L249.838 43.1341Z" fill="#FA0D5C"/>
<path d="M394.162 704.866C398.939 727.056 382.05 748 359.38 748L284.62 748C261.95 748 245.061 727.056 249.838 704.866L283.949 546.419C287.481 530.012 301.97 518.299 318.731 518.299L325.269 518.299C342.03 518.299 356.519 530.012 360.051 546.419L394.162 704.866Z" fill="#FA0D5C"/>
<path d="M652.866 301.838C675.056 297.061 696 313.95 696 336.62L696 411.38C696 434.05 675.056 450.939 652.866 446.162L494.419 412.051C478.012 408.519 466.299 394.03 466.299 377.269L466.299 370.731C466.299 353.969 478.012 339.481 494.419 335.949L652.866 301.838Z" fill="#FF5526"/>
</svg>
