<svg width="24" height="24" viewBox="0 0 24 24" fill="none" xmlns="http://www.w3.org/2000/svg">
<path d="M8.94997 8.537C10.4624 7.38297 12.3569 6.84683 14.2498 7.03716C16.1427 7.22749 17.8926 8.13006 19.145 9.5621C20.3974 10.9941 21.0589 12.8486 20.9953 14.75C20.9318 16.6514 20.148 18.4576 18.8028 19.8028C17.4576 21.1481 15.6514 21.9318 13.75 21.9953C11.8486 22.0589 9.99411 21.3975 8.56207 20.145C7.13003 18.8926 6.22746 17.1428 6.03713 15.2499C5.8468 13.357 6.38294 11.4625 7.53697 9.95L4.66197 7.075L2.18597 9.55L0.771973 8.136L7.13597 1.772L8.54997 3.186L6.07497 5.661L8.95097 8.537H8.94997ZM13.5 20C14.9587 20 16.3576 19.4205 17.3891 18.3891C18.4205 17.3576 19 15.9587 19 14.5C19 13.0413 18.4205 11.6424 17.3891 10.6109C16.3576 9.57947 14.9587 9 13.5 9C12.0413 9 10.6423 9.57947 9.61088 10.6109C8.57943 11.6424 7.99997 13.0413 7.99997 14.5C7.99997 15.9587 8.57943 17.3576 9.61088 18.3891C10.6423 19.4205 12.0413 20 13.5 20V20Z" fill="#09121F"/>
</svg>
