<svg width="42" height="42" viewBox="0 0 42 42" fill="none" xmlns="http://www.w3.org/2000/svg">
<path fill-rule="evenodd" clip-rule="evenodd" d="M20.8735 17.747C23.565 17.747 25.747 15.565 25.747 12.8735C25.747 10.1818 23.565 8 20.8735 8C18.1818 8 16 10.1818 16 12.8735C16 15.565 18.1818 17.747 20.8735 17.747" fill="white"/>
<path fill-rule="evenodd" clip-rule="evenodd" d="M33.1738 16.5558V16.5558C32.7057 15.6973 31.6533 15.3475 30.7643 15.7543L25.7258 17.7814L25.7263 17.7791C25.7045 17.7891 25.6827 17.7976 25.6609 17.8073L24.7781 18.1626C20.3355 19.73 16.2315 18.0035 16.2315 18.0035L16.231 18.0046L10.6372 15.7543C9.74818 15.3475 8.69576 15.6973 8.22765 16.5558C7.75903 17.4149 8.03528 18.4899 8.85992 19.0167L15.7185 23.3985V30.0867C15.7185 32.1964 17.4288 33.9065 19.5383 33.9065H21.6457C23.7554 33.9065 25.4655 32.1964 25.4655 30.0867V23.5375L32.5415 19.0167C33.3662 18.4899 33.6424 17.4149 33.1738 16.5558" fill="white"/>
</svg>
