<svg width="24" height="24" viewBox="0 0 24 24" fill="none" xmlns="http://www.w3.org/2000/svg">
<path d="M18.5 2C19.617 1.9994 20.6944 2.41432 21.5225 3.16405C22.3507 3.91378 22.8703 4.94472 22.9805 6.05637C23.0906 7.16801 22.7833 8.28088 22.1184 9.17852C21.4535 10.0762 20.4784 10.6944 19.383 10.913L19.394 10.94C19.8891 12.1362 20.0866 13.4346 19.9694 14.7239C19.8522 16.0131 19.4239 17.2547 18.7213 18.342C18.0186 19.4293 17.0625 20.3298 15.9352 20.9663C14.8079 21.6027 13.5429 21.9561 12.249 21.996L12 22C10.6817 22.0003 9.38388 21.6749 8.22177 21.0527C7.05965 20.4305 6.0693 19.5307 5.33878 18.4334C4.60825 17.3362 4.16019 16.0754 4.03443 14.7632C3.90868 13.451 4.10913 12.1281 4.61796 10.912C3.52169 10.6945 2.54561 10.0768 1.87982 9.17913C1.21403 8.28146 0.906196 7.16811 1.01627 6.05591C1.12634 4.94371 1.64644 3.9123 2.47527 3.16255C3.3041 2.41279 4.38233 1.99837 5.49996 2C6.6508 2.00007 7.75788 2.44106 8.59357 3.2323C9.42926 4.02354 9.93005 5.10488 9.99296 6.254L10.066 6.235C10.6987 6.07835 11.3481 5.99943 12 6L12.25 6.004C12.8427 6.02199 13.4317 6.10584 14.006 6.254C14.0689 5.10471 14.5698 4.02322 15.4057 3.23196C16.2416 2.44069 17.3489 1.99982 18.5 2V2ZM12 8C11.212 8 10.4318 8.1552 9.70386 8.45673C8.9759 8.75826 8.31447 9.20021 7.75732 9.75736C7.20017 10.3145 6.75821 10.976 6.45668 11.7039C6.15515 12.4319 5.99996 13.2121 5.99996 14C5.99996 14.7879 6.15515 15.5682 6.45668 16.2961C6.75821 17.0241 7.20017 17.6855 7.75732 18.2426C8.31447 18.7998 8.9759 19.2418 9.70386 19.5433C10.4318 19.8448 11.212 20 12 20C13.5913 20 15.1174 19.3679 16.2426 18.2426C17.3678 17.1174 18 15.5913 18 14C18 12.4087 17.3678 10.8826 16.2426 9.75736C15.1174 8.63215 13.5913 8 12 8ZM5.49996 4C4.83692 4 4.20103 4.2634 3.73219 4.73224C3.26335 5.20108 2.99996 5.83696 2.99996 6.5C2.99996 7.16305 3.26335 7.79893 3.73219 8.26777C4.20103 8.73661 4.83692 9 5.49996 9L5.66396 8.995L5.76696 8.985C6.28654 8.33919 6.90281 7.77756 7.59396 7.32L7.92396 7.114C8.01744 6.74503 8.02544 6.35958 7.94734 5.98704C7.86924 5.61451 7.7071 5.26472 7.4733 4.96436C7.23949 4.664 6.94018 4.421 6.5982 4.25387C6.25622 4.08675 5.88059 3.99992 5.49996 4V4ZM18.5 4C18.1364 3.99988 17.7771 4.07906 17.4473 4.23203C17.1175 4.38499 16.825 4.60806 16.5902 4.88568C16.3554 5.16329 16.184 5.48878 16.088 5.83944C15.9919 6.1901 15.9735 6.55749 16.034 6.916L16.077 7.116L16.105 7.132C16.9179 7.6191 17.6383 8.24608 18.233 8.984C18.5716 9.02245 18.9146 8.99124 19.2407 8.8923C19.5669 8.79336 19.8693 8.62877 20.1295 8.40865C20.3898 8.18853 20.6022 7.91753 20.7539 7.61229C20.9055 7.30706 20.9931 6.97404 21.0114 6.6337C21.0296 6.29336 20.9781 5.95288 20.8599 5.63319C20.7417 5.3135 20.5594 5.02135 20.3242 4.77469C20.089 4.52803 19.8059 4.33207 19.4921 4.19885C19.1784 4.06563 18.8408 3.99796 18.5 4V4Z" fill="#09121F"/>
</svg>
