<svg width="24" height="24" viewBox="0 0 24 24" fill="none" xmlns="http://www.w3.org/2000/svg">
<path d="M19.375 15.103C20.0239 13.5613 20.1733 11.855 19.8021 10.224C19.431 8.59305 18.558 7.11939 17.306 6.01025C16.0539 4.90111 14.4857 4.21227 12.8219 4.04056C11.158 3.86886 9.48222 4.22293 8.03004 5.053L7.03804 3.316C8.55567 2.44862 10.2742 1.99437 12.0222 1.99858C13.7703 2.00279 15.4866 2.46531 17 3.34C21.49 5.932 23.21 11.482 21.117 16.11L22.459 16.884L18.294 19.098L18.129 14.384L19.375 15.103ZM4.62504 8.897C3.97618 10.4387 3.82682 12.145 4.19796 13.776C4.56909 15.407 5.44205 16.8806 6.69411 17.9897C7.94617 19.0989 9.51436 19.7877 11.1782 19.9594C12.842 20.1311 14.5179 19.7771 15.97 18.947L16.962 20.684C15.4444 21.5514 13.7258 22.0056 11.9778 22.0014C10.2298 21.9972 8.51347 21.5347 7.00004 20.66C2.51004 18.068 0.790039 12.518 2.88304 7.89L1.54004 7.117L5.70504 4.903L5.87004 9.617L4.62404 8.898L4.62504 8.897ZM13 13.536H16V15.536H13V17.536H11V15.536H8.00004V13.536H11V12.536H8.00004V10.536H10.586L8.46404 8.414L9.88004 7L12 9.121L14.121 7L15.536 8.414L13.414 10.536H16V12.536H13V13.536Z" fill="#09121F"/>
</svg>
