<svg width="24" height="24" viewBox="0 0 24 24" fill="none" xmlns="http://www.w3.org/2000/svg">
<path d="M12.0001 22C10.8182 22 9.64785 21.7672 8.55592 21.3149C7.46399 20.8626 6.47184 20.1997 5.63611 19.364C4.80038 18.5282 4.13745 17.5361 3.68515 16.4442C3.23286 15.3522 3.00007 14.1819 3.00007 13C3.00007 11.8181 3.23286 10.6478 3.68515 9.55586C4.13745 8.46393 4.80038 7.47178 5.63611 6.63605C6.47184 5.80032 7.46399 5.13739 8.55592 4.68509C9.64785 4.2328 10.8182 4.00001 12.0001 4.00001C14.387 4.00001 16.6762 4.94822 18.364 6.63605C20.0519 8.32388 21.0001 10.6131 21.0001 13C21.0001 15.387 20.0519 17.6761 18.364 19.364C16.6762 21.0518 14.387 22 12.0001 22ZM12.0001 20C12.9193 20 13.8296 19.819 14.6789 19.4672C15.5281 19.1154 16.2998 18.5998 16.9498 17.9498C17.5998 17.2997 18.1154 16.5281 18.4672 15.6788C18.819 14.8295 19.0001 13.9193 19.0001 13C19.0001 12.0808 18.819 11.1705 18.4672 10.3212C18.1154 9.47195 17.5998 8.70027 16.9498 8.05026C16.2998 7.40025 15.5281 6.88464 14.6789 6.53285C13.8296 6.18107 12.9193 6.00001 12.0001 6.00001C10.1436 6.00001 8.36308 6.73751 7.05032 8.05026C5.73757 9.36302 5.00007 11.1435 5.00007 13C5.00007 14.8565 5.73757 16.637 7.05032 17.9498C8.36308 19.2625 10.1436 20 12.0001 20ZM13.0001 13H16.0001V15H11.0001V8.00001H13.0001V13ZM1.74707 6.28201L5.28207 2.74701L6.69707 4.16101L3.16007 7.69701L1.74707 6.28201ZM18.7171 2.74701L22.2531 6.28201L20.8391 7.69701L17.3031 4.16101L18.7181 2.74701H18.7171Z" fill="#09121F"/>
</svg>
