<svg width="24" height="24" viewBox="0 0 24 24" fill="none" xmlns="http://www.w3.org/2000/svg">
<path d="M12 17C15.662 17 18.865 18.575 20.607 20.925L18.765 21.796C17.347 20.116 14.847 19 12 19C9.15304 19 6.65304 20.116 5.23504 21.796L3.39404 20.924C5.13604 18.574 8.33804 17 12 17ZM12 2C13.3261 2 14.5979 2.52678 15.5356 3.46447C16.4733 4.40215 17 5.67392 17 7V10C17 11.3261 16.4733 12.5979 15.5356 13.5355C14.5979 14.4732 13.3261 15 12 15C10.674 15 9.40219 14.4732 8.46451 13.5355C7.52683 12.5979 7.00004 11.3261 7.00004 10V7C7.00004 5.67392 7.52683 4.40215 8.46451 3.46447C9.40219 2.52678 10.674 2 12 2V2Z" fill="#09121F"/>
</svg>
