<svg width="24" height="24" viewBox="0 0 24 24" fill="none" xmlns="http://www.w3.org/2000/svg">
<path d="M5.67101 4.257C9.59901 1.038 15.404 1.262 19.071 4.929C22.976 8.834 22.976 15.166 19.071 19.071C15.166 22.976 8.83401 22.976 4.92901 19.071C3.73064 17.8743 2.85609 16.3926 2.38747 14.7651C1.91886 13.1376 1.87156 11.4178 2.25001 9.767L2.32701 9.454L4.26101 9.964C3.78156 11.7863 3.96071 13.7193 4.76689 15.4224C5.57308 17.1255 6.95455 18.4894 8.66785 19.2737C10.3811 20.058 12.3163 20.2123 14.1323 19.7096C15.9482 19.2068 17.5285 18.0792 18.5944 16.5254C19.6604 14.9717 20.1438 13.0915 19.9593 11.2163C19.7747 9.34103 18.9342 7.59111 17.5859 6.2749C16.2375 4.95869 14.4678 4.16066 12.5887 4.02146C10.7096 3.88226 8.8416 4.41082 7.31401 5.514L7.09301 5.68L8.11001 6.697L3.51401 7.757L4.57401 3.161L5.67001 4.257H5.67101ZM13 6V8H15.5V10H10C9.87507 9.99977 9.75456 10.0463 9.66223 10.1305C9.5699 10.2147 9.51243 10.3304 9.50114 10.4548C9.48985 10.5793 9.52556 10.7034 9.60123 10.8028C9.67691 10.9023 9.78707 10.9697 9.91001 10.992L10 11H14C14.6631 11 15.2989 11.2634 15.7678 11.7322C16.2366 12.2011 16.5 12.837 16.5 13.5C16.5 14.163 16.2366 14.7989 15.7678 15.2678C15.2989 15.7366 14.6631 16 14 16H13V18H11V16H8.50001V14H14C14.125 14.0002 14.2455 13.9537 14.3378 13.8695C14.4301 13.7853 14.4876 13.6696 14.4989 13.5452C14.5102 13.4207 14.4745 13.2966 14.3988 13.1972C14.3231 13.0977 14.213 13.0303 14.09 13.008L14 13H10C9.33697 13 8.70109 12.7366 8.23225 12.2678C7.76341 11.7989 7.50001 11.163 7.50001 10.5C7.50001 9.83696 7.76341 9.20107 8.23225 8.73223C8.70109 8.26339 9.33697 8 10 8H11V6H13Z" fill="#09121F"/>
</svg>
