<svg width="42" height="42" viewBox="0 0 42 42" fill="none" xmlns="http://www.w3.org/2000/svg">
<path fill-rule="evenodd" clip-rule="evenodd" d="M22.5305 8.56352L34.9962 21.4298C35.3804 21.8265 35.3704 22.4596 34.9737 22.8438C34.7872 23.0245 34.5376 23.1256 34.2779 23.1256L31.8714 23.1259C31.9134 24.5756 31.8788 25.9686 31.7674 27.3049C31.6527 28.6814 31.4878 30.0578 31.2729 31.4342C31.1208 32.4078 30.2822 33.1256 29.2968 33.1256H25.6381C25.0858 33.1256 24.638 32.6778 24.6381 32.1254L24.639 26.6256C24.639 24.757 23.1747 23.2305 21.331 23.1308L21.139 23.1256C19.2704 23.1256 17.7438 24.5899 17.6441 26.4336L17.639 26.6256L17.6381 32.1257C17.638 32.678 17.1903 33.1256 16.6381 33.1256H13.3406C12.3968 33.1256 11.5815 32.4659 11.3846 31.5429C11.0958 30.1891 10.89 28.7764 10.7674 27.3049C10.6515 25.9139 10.614 24.5207 10.655 23.1252L8 23.1256C7.44772 23.1256 7 22.6779 7 22.1256C7 21.8659 7.10105 21.6163 7.28176 21.4298L19.7025 8.60841C20.471 7.81506 21.7372 7.79497 22.5305 8.56352Z" fill="white"/>
</svg>
